<?xml version="1.0" encoding="UTF-8" standalone="no"?>
<!-- Created with Inkscape (http://www.inkscape.org/) -->

<svg
   version="1.1"
   id="svg1"
   width="500"
   height="500"
   viewBox="0 0 500 500"
   xml:space="preserve"
   xmlns:xlink="http://www.w3.org/1999/xlink"
   xmlns="http://www.w3.org/2000/svg"
   xmlns:svg="http://www.w3.org/2000/svg"><defs
     id="defs1"><clipPath
       clipPathUnits="userSpaceOnUse"
       id="clipPath17"><use
         x="0"
         y="0"
         xlink:href="#g16"
         id="use17" /></clipPath></defs><g
     id="layer3"
     style="fill:#04bfad;fill-opacity:1"><g
       id="g17"
       clip-path="url(#clipPath17)"
       style="fill:#04bfad;fill-opacity:1"><g
         id="g16"
         style="fill:#04bfad;fill-opacity:1"><path
           style="fill:#ffffff;fill-opacity:1"
           d="m 111.19926,191.01476 c 0,0 7.74908,39.5203 9.2989,49.5941 1.54981,10.0738 8.13653,58.89299 6.97416,69.74169 -1.16236,10.84871 -1.16236,15.1107 -1.16236,15.1107 0,0 24.02214,-12.78597 45.33211,-11.62361 21.30996,1.16236 59.66789,7.36162 66.25461,10.0738 6.58671,2.71218 -26.34686,-16.66052 -63.54244,-18.21033 -37.19557,-1.54982 -39.13284,8.13653 -39.13284,8.13653 0,0 1.16236,-42.23247 -2.32472,-53.46864 -3.48709,-11.23616 -10.46126,-63.15498 -12.39852,-64.31734 -1.93727,-1.16236 8.13653,-1.93727 8.13653,-1.93727 l -3.09963,-6.19926 z"
           id="path4" /><path
           style="fill:#ffffff;fill-opacity:1"
           d="m 121.27306,162.73063 c 0,0 26.34687,44.94465 27.50923,80.20295 1.16236,35.2583 -1.16236,54.631 -1.93727,56.95572 -0.77491,2.32472 22.47232,-1.93727 22.47232,-1.93727 l -17.04797,-3.87454 c 0,0 8.91144,-60.05535 6.97417,-72.06642 -1.93727,-12.01107 -5.81181,-60.05535 -9.68634,-65.09225 -3.87454,-5.0369 -28.28414,5.81181 -28.28414,5.81181 z"
           id="path5" /><path
           style="display:inline;fill:#ffffff;fill-opacity:1"
           d="m 362.26937,146.84502 c 0,0 -5.42435,12.78598 -7.36162,26.34686 -1.93727,13.56089 -1.93727,32.93358 0.38745,44.16974 2.32473,11.23617 5.0369,21.30997 5.0369,21.30997 0,0 -27.50922,15.88561 -39.90775,25.1845 -12.39852,9.29889 -43.78228,40.2952 -46.49446,48.04428 -2.71218,7.74908 16.66052,-17.82288 25.1845,-21.69742 8.52399,-3.87454 22.08487,-17.43542 43.78229,-25.95941 21.69742,-8.52398 46.49446,-15.88561 46.49446,-15.88561 0,0 -4.64944,-50.369 -7.36162,-72.06642 -2.71218,-21.69741 0.77491,-25.57195 -5.81181,-27.50922 -6.58671,-1.93727 -13.94834,-1.93727 -13.94834,-1.93727 z"
           id="path10" /><path
           style="fill:#ffffff;fill-opacity:1"
           d="m 279.35424,312.28782 c 0,0 58.11808,-32.54612 70.12916,-36.80812 12.01107,-4.26199 37.19557,-12.01107 37.19557,-12.01107 v 17.43543 c 0,0 -20.92251,0.77491 -29.4465,3.09963 -8.52398,2.32472 -77.87823,28.28413 -77.87823,28.28413 z"
           id="path11" /><path
           style="fill:#ffffff;fill-opacity:1"
           d="m 258.43173,324.68635 c 0,0 115.46126,-27.89668 115.46126,-29.83395 0,-1.93727 -1.16236,-6.19926 -1.16236,-6.19926 l 7.74907,-1.54982 3.87454,13.17343 z"
           id="path12" /><path
           d="m -1764.8221,7763.4842 -44.0039,-130.0049 -44.0039,-131.001 -103.9893,3.003 -105,3.0029 -45,123.999 -45,123.0029 -46.0107,-6.0058 c -25,-3 -72.9924,-10.9922 -106.9922,-16.9922 l -62.0069,-11.001 -3.0029,-140.0097 -2.9883,-140.9913 -92.0068,-33.0029 -90.9961,-33.0029 -86.9971,108.999 c -47.9998,60.9998 -89.999,108.0106 -93.999,106.0108 -120.9998,-68 -171.0059,-101.0129 -171.0059,-113.0127 0,-9 15.9952,-64.9991 34.9952,-123.9991 18.9998,-59.9998 35.0097,-114.9883 35.0097,-122.9883 0,-13.9998 -135.0068,-126.0058 -152.0068,-126.0058 -5,0 -59.0002,32.001 -120,71.001 -61,38.9998 -113.9971,66.9921 -116.9971,61.9921 -4,-4 -38,-41.9902 -75,-84.9902 -37,-41.9998 -63.0078,-79.0019 -58.0078,-82.0019 5,-3 44.0119,-50.9963 87.0117,-105.9961 l 75.9961,-100.0049 -52.998,-85.0049 c -36,-58 -57.9981,-82.9951 -67.9981,-79.9951 -16,5 -247.0039,55.0049 -254.0039,55.0049 -2,0 -15.0039,-28.0069 -29.0039,-62.0069 -14,-34.9998 -32.001,-79.0049 -41.001,-100.0049 l -15.9961,-35.9912 112.9981,-73.0078 c 60.9998,-39 114.0009,-73 116.0009,-75 5,-4 -29.998,-168.9922 -37.998,-181.9922 -4,-6 -67.0059,-18.0078 -141.0059,-28.0078 -73.9998,-9 -135.9884,-17.999 -137.9882,-18.999 -2,-1 -6.0088,-49.9885 -9.0088,-107.9883 l -5.9912,-105 43.9892,-12.0117 c 27.8772,-7.2097 28.4156,-8.0765 53.833,-14.8975 h 357.378 a 1385.7124,1385.7124 0 0 0 -0.7032,8.8477 1385.7124,1385.7124 0 0 0 1385.713,1385.7129 1385.7124,1385.7124 0 0 0 1385.71286,-1385.7129 1385.7124,1385.7124 0 0 0 -0.7031,-8.8477 h 223.2861 c 33.5107,9.6226 69.0491,19.9312 107.4902,29.8975 90.9998,25.9998 97.002,29.0088 97.002,54.0088 -1,29.9998 -18.9981,172.997 -22.9981,176.997 -1,1 -68.008,8 -148.0078,15 l -146.997,11.9971 -21.0059,86.001 c -11,47.9998 -20.9912,93.001 -20.9912,101.001 0,8 46.9933,45.998 102.9931,82.998 56,38 110.0002,74.0059 120,81.0059 16,12 13.995,19.0002 -25.0048,105 -28,61.9998 -45.9932,90.9961 -57.9932,90.9961 -9,0 -62.001,-10.9942 -116.001,-23.9942 -176.9996,-42.9998 -153,-47.9988 -210,41.001 -27,42 -50.0019,80.9902 -52.0019,84.9902 -2,4 38.0039,61.9983 89.0039,127.9981 l 91.9922,121.0107 -72.9932,66.9873 c -40,37 -77.0059,68.0049 -81.0059,70.0049 -4,2 -54.9943,-28.9982 -113.9941,-67.998 -58,-39 -112,-72.9961 -120,-75.9961 -8,-4 -45.0002,20.001 -89.99996,56.001 -41,34.9998 -75,62.999 -75,63.999 0,0 20.0039,62.9992 44.0039,138.999 l 43.98916,138.0029 -76.99206,37.9981 c -119.9998,60.9998 -106.0012,63.9889 -191.001,-46.0107 -41,-53 -79.0049,-101.9952 -85.0049,-109.9952 -8,-11 -27.9953,-7.0048 -109.9951,19.9952 l -100.0049,34.0136 -2.9883,140.9912 c -1,78 -6.0049,142.002 -10.0049,142.002 -7,0 -112.0031,16.0049 -168.0029,25.0049 z"
           id="path23"
           transform="matrix(0.13333333,0,0,-0.13333333,510,1040)"
           style="fill:#ffffff;fill-opacity:1" /><path
           d="m 274.40554,473.11082 -5.86718,-17.33399 -5.86719,-17.4668 -13.86524,0.4004 -14,0.40039 -6,16.5332 -6,16.40039 -6.13476,-0.80078 c -3.33333,-0.4 -9.73232,-1.46562 -14.26563,-2.26562 l -8.26758,-1.4668 -0.40039,-18.66796 -0.39844,-18.79884 -12.26757,-4.40039 -12.13281,-4.40039 -11.59962,14.5332 c -6.39997,8.13331 -11.99986,14.40142 -12.5332,14.13478 -16.1333,-9.06667 -22.80078,-13.46839 -22.80078,-15.06836 0,-1.2 2.13269,-8.66655 4.66602,-16.53322 2.53331,-7.99997 4.66796,-15.33177 4.66796,-16.39843 0,-1.86664 -18.0009,-16.80078 -20.26757,-16.80078 -0.66667,0 -7.86669,4.2668 -16,9.4668 -8.13333,5.19998 -15.19961,8.93228 -15.59961,8.26562 -0.53334,-0.53334 -5.066666,-5.5987 -9.999996,-11.33203 -4.93334,-5.59997 -8.40104,-10.53359 -7.73438,-10.93359 0.66667,-0.4 5.86826,-6.7995 11.60156,-14.13281 L 83.47195,353.11082 76.405554,341.77684 c -4.8,-7.73334 -7.73308,-11.06602 -9.06642,-10.66602 -2.13333,0.66667 -32.93385,7.33399 -33.86718,7.33399 -0.26667,0 -2.00052,-3.73425 -3.86719,-8.26759 -1.86666,-4.66664 -4.2668,-10.53398 -5.4668,-13.33398 l -2.13281,-4.79883 15.06641,-9.73437 c 8.13331,-5.2 15.20012,-9.73333 15.46679,-10 0.66666,-0.53333 -3.99974,-22.53229 -5.0664,-24.26563 -0.53334,-0.8 -8.93412,-2.40104 -18.80079,-3.73437 -9.86664,-1.2 -18.131781,-2.39987 -18.398421,-2.5332 -0.26667,-0.13333 -0.8011801,-6.66513 -1.2011801,-14.39844 l -0.79882,-14 5.8652201,-1.60156 c 3.716961,-0.96129 3.788751,-1.07687 7.177741,-1.98633 h 47.65039 a 184.76165,184.76165 0 0 0 -0.0938,1.17969 184.76165,184.76165 0 0 0 184.761726,184.76172 184.76165,184.76165 0 0 0 184.76171,-184.76172 184.76165,184.76165 0 0 0 -0.0937,-1.17969 h 29.77148 c 4.46809,1.28301 9.20654,2.65749 14.33202,3.98633 12.13331,3.46664 12.9336,3.86784 12.9336,7.20117 -0.13333,3.99998 -2.53308,23.06627 -3.06641,23.5996 -0.13333,0.13334 -9.06773,1.06667 -19.73437,2 l -19.5996,1.59962 -2.80079,11.4668 c -1.46667,6.39997 -2.79883,12.40013 -2.79883,13.4668 0,1.06666 6.26578,6.13306 13.73242,11.0664 7.46666,5.06666 14.66669,9.86745 16,10.80078 2.13333,1.6 1.866,2.53336 -3.33398,14 -3.73333,8.26664 -6.13242,12.13281 -7.73242,12.13281 -1.2,0 -8.2668,-1.46589 -15.4668,-3.19922 -23.59995,-5.73331 -20.4,-6.39984 -28,5.4668 -3.6,5.6 -6.66692,10.79869 -6.93359,11.33202 -0.26667,0.53334 5.06719,8.26644 11.86719,17.06642 l 12.26562,16.13476 -9.73242,8.93164 c -5.33334,4.93333 -10.26746,9.06732 -10.80079,9.33398 -0.53333,0.26667 -7.33257,-3.86642 -15.19921,-9.0664 -7.73334,-5.2 -14.93334,-9.73281 -16,-10.13281 -1.06667,-0.53333 -6.00003,2.6668 -12,7.4668 -5.46666,4.66664 -10,8.39987 -10,8.5332 0,0 2.66719,8.39989 5.86719,18.5332 l 5.86522,18.40038 -10.26561,5.06642 c -15.99997,8.1333 -14.13349,8.53185 -25.4668,-6.13476 -5.46666,-7.06667 -10.53398,-13.59936 -11.33398,-14.66603 -1.06667,-1.46667 -3.73271,-0.93397 -14.66602,2.66603 l -13.33398,4.53514 -0.39844,18.79883 c -0.13333,10.4 -0.80065,18.9336 -1.33399,18.9336 -0.93333,0 -14.93374,2.13399 -22.40038,3.33399 z"
           id="path23-6"
           style="fill:#ffffff;fill-opacity:1;stroke-width:0.133333" /><path
           id="path44"
           style="display:inline;fill:#ffffff;fill-opacity:1;stroke:none"
           d="m 174.27734,139.25195 c -7.05184,-0.042 -11.96093,0.125 -11.96093,0.125 4.34874,7.61032 0.87071,16.63494 6.63281,33.48633 5.76208,16.85139 3.1517,47.40054 3.36914,50.33594 0.21743,2.93541 -2.82555,26.09348 -3.36914,33.8125 -0.5436,7.71902 -6.19721,23.15565 -5.21875,24.35156 0.97847,1.1959 16.41692,2.93565 21.74414,5.21875 5.3272,2.28309 20.1128,7.0671 23.5918,7.82813 3.47899,0.76103 16.52437,9.67654 22.17773,11.74218 5.65337,2.06566 16.96094,3.91407 16.96094,3.91407 0,0 0.32617,-142.85689 0.32617,-145.35743 0,-2.50052 -7.28355,-13.80747 -14.45898,-17.5039 -7.17544,-3.69643 -2.06596,0.54339 -19.46094,-4.24024 -10.87187,-2.98976 -28.58091,-3.64281 -40.33399,-3.71289 z m 60.38868,48.42383 0.25,0.15625 h 0.75 l 2.875,2.03125 2.0625,2.1875 -3.46875,2.5 -0.4375,0.5625 -2.375,0.5625 -1.15625,-0.125 -1,-0.75 h -0.59375 l -2.625,5.375 -1.15625,1.34375 -0.125,1.40625 -1,1.90625 -0.46875,1.46875 -0.5625,0.84375 -0.25,2.0625 -0.40625,1.09375 c -0.0417,0.125 -0.3125,0.4375 -0.8125,0.9375 v 0.71875 l -0.40625,1.34375 0.28125,0.8125 c -0.3125,0.97917 -0.59375,1.66667 -0.84375,2.0625 l 0.125,1.15625 -0.4375,1.46875 0.3125,0.25 v 0.78125 l 0.5625,0.5625 -0.3125,1.03125 0.3125,2.3125 h -0.1875 l -0.125,1.71875 c 0,0.33333 0.44791,1.01042 1.34375,2.03125 l -0.3125,0.46875 0.5625,0.6875 0.34375,2.9375 -0.78125,0.71875 v 0.84375 l -0.4375,1 h -0.40625 l -1.34375,1.9375 -1.125,-0.125 -1.03125,1.21875 -1.875,1.34375 -1.34375,-2.4375 v -2.5 l -0.4375,-2.1875 0.1875,-1.03125 -1.78125,-2.59375 0.4375,-0.71875 -0.4375,-0.84375 0.3125,-0.3125 -1.15625,-0.4375 -0.4375,0.3125 c -0.10417,-0.375 -0.48959,-0.92708 -1.15625,-1.65625 h -0.4375 l -0.71875,-2.4375 -1.34375,-1.21875 -0.6875,-1.40625 c -0.35417,-0.60416 -0.55209,-1.09375 -0.59375,-1.46875 l -1.71875,-1.59375 -0.4375,-0.90625 0.125,-0.71875 -0.46875,-0.6875 -0.4375,-0.1875 -0.375,-0.96875 h -0.34375 l -0.4375,-1.21875 -0.90625,-1.1875 c -0.125,-0.14583 -0.25,-0.52083 -0.375,-1.125 l -0.75,0.15625 -0.84375,1.78125 v 0.5625 c -0.14584,0.85417 -0.38542,1.77084 -0.71875,2.75 l -0.625,0.34375 0.3125,1 0.71875,0.46875 -0.28125,1.40625 v 1.59375 l -1.46875,1.78125 0.125,1.28125 -0.375,0.90625 0.375,0.96875 -0.25,0.3125 0.125,0.90625 -0.5625,1.28125 v 0.875 l -0.5625,0.71875 -0.46875,1.90625 v 0.59375 l -0.25,0.25 -1.46875,4.53125 -0.4375,0.84375 -1.15625,0.5625 0.125,0.34375 -2.3125,1 -1.15625,-0.3125 -0.3125,-1.15625 0.78125,-0.875 -0.34375,-0.40625 h -0.875 v -0.3125 l 1,-0.90625 -0.25,-1.15625 1.03125,-0.25 1.40625,-1.90625 0.4375,-1.71875 v -0.71875 l 0.71875,-0.78125 v -1.28125 l 1.90625,-7.84375 -0.125,-0.46875 v -1.28125 l 0.84375,-1.28125 -0.25,-0.875 0.6875,-1.15625 0.125,-0.78125 0.34375,-1.15625 -0.15625,-0.5625 0.46875,-1.71875 -1.21875,-3.09375 c 0.1875,-0.29167 0.48958,-0.5625 0.90625,-0.8125 l -0.46875,-1.625 0.3125,-1 0.59375,-0.125 0.125,-0.90625 h -2.625 l -2.625,0.90625 -0.5625,-0.34375 -1.40625,2.90625 -3.65625,3.375 -1.9375,0.84375 -0.8125,-1.59375 v -1.15625 l 0.6875,-0.28125 -0.125,-0.625 -0.4375,-0.125 v -0.71875 l 0.6875,-0.5625 v -0.59375 l 1.15625,0.40625 0.3125,-0.40625 -0.4375,-0.4375 c 0.0833,-0.20833 0.53125,-0.78125 1.34375,-1.71875 l 1.59375,-0.4375 0.125,-1.03125 0.71875,0.125 0.59375,-0.65625 c 0.125,-0.125 0.34375,-0.25 0.65625,-0.375 l 1.25,-0.4375 0.125,-0.25 0.875,-0.0937 c 0.35416,-0.0417 0.66666,-0.16667 0.9375,-0.375 0.27083,-0.20833 0.91666,-0.39583 1.9375,-0.5625 l 1.5,-0.25 3.5,-2 0.84375,-0.90625 1.78125,-0.6875 1.5625,-0.1875 0.8125,1.65625 c -0.60417,1.0625 -0.85417,1.83334 -0.75,2.3125 l 0.9375,5.0625 0.46875,1.1875 v 0.84375 h 0.8125 l 0.125,1.28125 1.34375,1.15625 -0.125,0.84375 0.28125,0.3125 2.46875,4.21875 2.625,5.1875 0.71875,0.75 v 0.40625 l 0.5625,0.625 0.90625,0.125 0.125,-0.75 0.4375,-0.125 v -0.46875 l 1.15625,-3.78125 0.0937,-0.90625 c 0.0208,-0.25 0.22916,-0.90625 0.625,-1.96875 l 1.21875,-0.875 v -0.71875 l 0.6875,-1.15625 v -0.875 c 0.45833,-0.58333 0.80208,-1.35417 1.03125,-2.3125 0.14583,-0.0625 0.32291,-0.22917 0.53125,-0.5 l 0.3125,-0.40625 1.78125,-4.78125 c 0.20833,-0.45833 0.41666,-0.76042 0.625,-0.90625 l 0.40625,-1.65625 0.5625,-0.46875 0.71875,-1.34375 0.4375,-1.28125 0.5625,-0.6875 c 0.1875,-0.20833 0.38541,-0.61458 0.59375,-1.21875 l 0.5625,-0.125 1.625,-3.03125 0.6875,-0.625 h 0.3125 c 0.25,-0.375 0.44791,-0.5625 0.59375,-0.5625 z" /><path
           d="m 342.2207,122.42578 c -1.31694,0.009 -2.55555,0.0731 -3.66992,0.20899 -29.57147,6.52311 -21.96254,3.69722 -54.57812,16.30859 -32.6156,12.61136 -26.30924,36.31172 -26.0918,60.44726 0.21743,24.13554 1.08789,109.15235 1.08789,109.15235 0,0 22.39479,-30.22225 27.61328,-35.00586 5.2185,-4.78363 55.66364,-36.09577 60.44727,-37.40039 4.78361,-1.30463 3.69646,-4.56554 0.65234,-13.48047 -3.04413,-8.91493 -6.95751,-25.87548 -3.47852,-35.66016 3.479,-9.78468 -2.60783,-24.13531 2.17579,-35.22461 4.78362,-11.08929 10.00204,-15.22162 11.95898,-20.875 1.95693,-5.65336 6.08789,-5.86914 6.08789,-5.86914 0,0 -12.9865,-2.66399 -22.20508,-2.60156 z m -21.77929,46.72852 1.03515,0.81836 1.59375,-0.17188 1.76758,2.02539 v 0.77539 l 1.07617,0.99219 0.60352,2.02344 -0.25781,1.25 h 0.25781 l -0.60352,6.76562 -1.07617,1.16406 -1.76758,0.86133 -2.02539,2.58594 -1.76758,0.42969 -1.59375,1.5957 -2.19726,-1.07812 -0.60352,-1.59375 0.94727,-1.1211 -0.60156,-1.42187 1.0332,-2.02539 c -0.17237,-1.20656 -0.3737,-1.88176 -0.60352,-2.02539 l -2.19726,0.25976 -1.59375,-0.60351 -2.62891,0.60351 0.25781,0.99024 -1.85156,1.55078 h -0.82031 l -8.35938,5.21484 -1.42187,1.42188 -1.07813,0.17187 -0.34375,0.82031 -2.19726,0.60157 0.17187,0.43164 -1.59375,0.60351 -3.62109,2.75781 -0.60156,0.60352 0.86132,0.56055 c 0.25855,0.17236 0.64697,0.66047 1.16407,1.46484 l 0.99023,-0.60351 0.60352,0.77539 1.59375,-0.60352 1.20703,0.60352 2.24023,-0.17188 6.9375,0.17188 0.64649,0.81836 h 1.85351 l 1.42188,1.03515 2.54297,-0.86328 h 0.94726 l 0.9043,0.60352 h 1.16406 l 0.77539,0.64648 h 1.25 l 0.60352,0.60352 0.68945,0.1289 c 0.20109,0.0287 0.61799,0.31746 1.25,0.86328 h 0.77539 c 0.48837,-0.28727 1.04768,-0.50284 1.67969,-0.64648 l 1.16406,1.07617 0.60352,1.12109 3.44726,2.24024 3.36133,2.97266 -0.77539,1.42382 1.37891,1.24805 -0.94922,2.97461 -0.25781,2.84375 -0.9043,1.46484 c -0.28728,0.48837 -0.63297,1.32217 -1.03516,2.5 l -1.85351,0.99024 -0.38672,1.03515 -7.41211,5.04102 -1.37891,-0.25781 -0.17187,0.77539 -8.0586,2.67187 -1.20703,0.94727 h -2.41211 l -0.60351,0.60351 h -1.25 l -0.51758,0.64649 -1.24805,-0.43164 -3.44922,1.20703 -0.17187,-0.17188 -1.59375,0.17188 -2.80078,0.64648 -4.78321,-0.47461 -2.19726,0.64649 -2.80078,-0.64649 -0.56055,-0.043 -0.56055,-0.043 -0.47461,-0.043 c -0.11491,-0.0287 -0.40168,-0.18734 -0.86132,-0.47461 l -1.16407,-0.77539 -1.59375,-2.24024 0.17188,-2.97265 0.77539,-0.17383 0.82031,-0.81836 1.20508,-0.60352 c 0.48837,-0.60328 1.16356,-1.19107 2.02539,-1.76562 h 4.61133 v 1.42187 l -0.17188,0.51563 0.60352,0.60351 -1.42188,1.33594 c -0.17236,0.17237 -0.43261,0.67471 -0.77734,1.50781 l 0.3457,0.77735 2.19727,0.99023 0.64648,-0.99023 1.59375,-0.3457 2.19922,0.51757 2.62696,0.25782 1.5957,-0.77539 h 1.42187 l 1.93946,-0.43165 0.77539,-0.42968 h 1.59375 l 1.07812,-0.21485 3.70508,-1.46679 1.20703,-0.25782 0.94727,-0.56054 c 0.25855,-0.17237 1.06386,-0.3737 2.41406,-0.60352 l 0.64648,-0.60351 0.60352,0.17382 3.61914,-2.02539 0.94727,-1.98242 1.85351,-0.51758 -0.0859,-1.12109 0.73243,-0.99023 -0.34571,-0.34375 0.94922,-2.45704 -0.17383,-0.99023 0.51758,-1.42383 -1.0332,-2.02539 0.42969,-1.59375 -1.07618,-2.36914 -1.03515,-0.43164 c -0.40219,-0.89056 -0.87605,-1.56575 -1.42188,-2.02539 l -2.19726,0.43164 -0.68946,-1.5957 c -0.0862,-0.17237 -0.44611,-0.53035 -1.07812,-1.07618 -0.66074,-0.11491 -1.39289,-0.3732 -2.19727,-0.77539 l -1.42187,1.42188 -0.60352,-0.64649 -2.24023,-0.51757 -1.20703,-1.25 -0.64649,0.64648 -1.11914,-0.42969 -0.82031,0.77539 -1.85156,-0.77539 -0.77539,1.20508 -1.93946,-0.94726 -0.25976,0.94726 h -1.59375 l -0.34375,-0.60351 -1.85352,-0.34375 -1.59375,0.77539 -1.89648,-0.21485 c -0.2011,-0.0287 -0.71768,-0.30126 -1.55078,-0.81836 l -0.99219,0.42969 -0.77539,-0.42969 -0.17188,0.77539 -2.45703,0.25782 -0.21484,-0.43164 -0.94922,0.17382 -1.59375,-1.42187 -0.43164,-1.07813 c -0.11491,-0.34473 -0.44441,-0.77587 -0.99024,-1.29296 0.68947,-0.54583 1.27921,-1.07666 1.76758,-1.59375 h 0.42969 l 0.81836,-1.42188 h 0.77734 l 0.99024,-1.12109 2.19726,-1.42188 2.19727,-2.02539 1.25,-0.81836 1.5957,-0.60351 1.42188,-1.42188 1.20508,-0.60351 1.33593,-1.16407 2.02539,-1.20508 1.85352,-2.02539 2.11133,-1.16406 c 0.34473,-0.34473 0.81859,-0.61726 1.42187,-0.81836 l 0.25977,-0.60351 2.58398,-1.85352 h 0.77539 l 1.07813,-1.33594 c 0.89055,-0.45964 1.62271,-0.91926 2.19726,-1.3789 l 0.17188,-0.64649 0.94922,-0.42968 0.17187,-0.34571 c 1.32147,-0.97674 2.41356,-1.8675 3.27539,-2.67187 h 0.34375 v -0.34375 h 0.64649 l 0.17383,-0.60352 1.85156,-0.60351 z"
           style="display:inline;fill:#ffffff;fill-opacity:1"
           id="path49" /></g></g></g></svg>
